<svg width="22" height="22" viewBox="0 0 22 22" fill="none" xmlns="http://www.w3.org/2000/svg">
<path d="M11 21H4.2C3.07989 21 2.51984 21 2.09202 20.7275C1.71569 20.4879 1.40973 20.1054 1.21799 19.635C1 19.1003 1 18.4001 1 17V5C1 3.59986 1 2.8998 1.21799 2.36503C1.40973 1.89461 1.71569 1.51216 2.09202 1.27249C2.51984 1 3.07989 1 4.2 1H4.6C6.84021 1 7.96031 1 8.81596 1.54496C9.5686 2.02434 10.1805 2.78924 10.564 3.73005C11 4.7996 11 6.19974 11 9M11 21V9M11 21H17.8C18.9201 21 19.4802 21 19.908 20.7275C20.2843 20.4879 20.5903 20.1054 20.782 19.635C21 19.1003 21 18.4001 21 17V5C21 3.59986 21 2.8998 20.782 2.36503C20.5903 1.89461 20.2843 1.51216 19.908 1.27249C19.4802 1 18.9201 1 17.8 1H17.4C15.1598 1 14.0397 1 13.184 1.54496C12.4314 2.02434 11.8195 2.78924 11.436 3.73005C11 4.7996 11 6.19974 11 9" stroke="#0A1930" stroke-width="1.5" stroke-linecap="round" stroke-linejoin="round"/>
</svg>
