<svg width="20" height="20" viewBox="0 0 20 20" fill="none" xmlns="http://www.w3.org/2000/svg">
<path d="M6.71851 15C7.37435 15 7.90601 15.5597 7.90601 16.25C7.90601 16.9403 7.37435 17.5 6.71851 17.5C6.06267 17.5 5.53101 16.9403 5.53101 16.25C5.53101 15.5597 6.06267 15 6.71851 15Z" stroke="#1C274C" stroke-width="1.5"/>
<path d="M13.8435 15C14.4993 15 15.031 15.5596 15.031 16.25C15.031 16.9403 14.4993 17.5 13.8435 17.5C13.1877 17.5 12.656 16.9403 12.656 16.25C12.656 15.5596 13.1877 15 13.8435 15Z" stroke="#1C274C" stroke-width="1.5"/>
<path d="M2.36426 2.5L2.57105 2.57653C3.60147 2.95787 4.11669 3.14855 4.41138 3.60248C4.70607 4.05642 4.70607 4.65938 4.70607 5.8653V8.13333C4.70607 10.5847 4.75614 11.3936 5.44204 12.1552C6.12794 12.9167 7.23188 12.9167 9.43978 12.9167H10.2809M13.6379 12.9167C14.8737 12.9167 15.4916 12.9167 15.9284 12.542C16.3651 12.1673 16.4899 11.5303 16.7393 10.2562L17.135 8.23562C17.4098 6.78641 17.5472 6.06181 17.1957 5.5809C16.8443 5.1 15.6435 5.1 14.3096 5.1H9.50786M4.70607 5.1H6.32259" stroke="#1C274C" stroke-width="1.5" stroke-linecap="round"/>
</svg>
