<svg width="25" height="26" viewBox="0 0 25 26" fill="none" xmlns="http://www.w3.org/2000/svg">
<path d="M23 13.2039V14.725C23 18.6258 23 20.5763 21.8284 21.7881C20.6569 23 18.7712 23 15 23H11C7.22876 23 5.34315 23 4.17157 21.7881C3 20.5763 3 18.6258 3 14.725V13.2039C3 10.9155 3 9.77128 3.5192 8.82274C4.0384 7.87421 4.98695 7.28551 6.88403 6.10813L8.88403 4.86687C10.8894 3.62229 11.8921 3 13 3C14.1079 3 15.1106 3.62229 17.116 4.86687L19.116 6.10812C21.0131 7.28551 21.9616 7.87421 22.4808 8.82274" stroke="#4B4B4B" stroke-width="1.5" stroke-linecap="round"/>
<path d="M16 19H10" stroke="#4B4B4B" stroke-width="1.5" stroke-linecap="round"/>
</svg>
