<svg width="12" height="11" viewBox="0 0 12 11" fill="none" xmlns="http://www.w3.org/2000/svg">
<path fill-rule="evenodd" clip-rule="evenodd" d="M3.30011 0.884356C3.19292 1.28445 3.43036 1.6957 3.83044 1.80292L9.25311 3.25592L0.428879 8.35059C0.0701505 8.5577 -0.0527521 9.01638 0.154361 9.37511C0.361473 9.73384 0.820151 9.85674 1.17888 9.64963L10.0031 4.55495L8.55011 9.97763C8.44291 10.3777 8.68036 10.789 9.08044 10.8962C9.48051 11.0034 9.89179 10.7659 9.99899 10.3659L11.9206 3.19422C11.9721 3.00211 11.9452 2.79736 11.8457 2.62511C11.7463 2.45285 11.5824 2.32713 11.3903 2.27567L4.21866 0.354031C3.81858 0.246818 3.4073 0.484268 3.30011 0.884356Z" fill="black"/>
</svg>
