<svg width="20" height="21" viewBox="0 0 20 21" fill="none" xmlns="http://www.w3.org/2000/svg">
<path d="M5.03303 6.97677C2.9833 7.44055 1.95843 7.67243 1.7146 8.45652C1.47077 9.24058 2.16946 10.0577 3.56683 11.6917L3.92835 12.1144C4.32544 12.5787 4.52398 12.8109 4.6133 13.0982C4.70262 13.3854 4.67261 13.6952 4.61257 14.3147L4.55792 14.8787C4.34665 17.0589 4.24102 18.149 4.87937 18.6336C5.51773 19.1182 6.47732 18.6763 8.3965 17.7927L8.893 17.5641C9.43833 17.313 9.711 17.1874 10.0001 17.1874C10.2892 17.1874 10.5618 17.313 11.1072 17.5641L11.6037 17.7927C13.5228 18.6763 14.4824 19.1182 15.1208 18.6336C15.7592 18.149 15.6535 17.0589 15.4422 14.8787M16.4333 11.6917C17.8307 10.0577 18.5294 9.24058 18.2856 8.45652C18.0417 7.67243 17.0168 7.44055 14.9672 6.97677L14.4368 6.85679C13.8543 6.725 13.5632 6.65911 13.3293 6.48159C13.0954 6.30407 12.9455 6.03502 12.6455 5.49694L12.3724 5.00706C11.3169 3.11351 10.7892 2.16675 10.0001 2.16675C9.211 2.16675 8.68325 3.11352 7.62772 5.00707" stroke="#1C274C" stroke-width="1.5" stroke-linecap="round"/>
</svg>
