<svg width="15" height="15" viewBox="0 0 15 15" fill="none" xmlns="http://www.w3.org/2000/svg">
<g clip-path="url(#clip0_115_100)">
<path d="M13.6489 6.95394C13.7614 5.75856 13.8176 5.16087 13.6131 4.91379C13.5025 4.78014 13.3521 4.69825 13.1912 4.68412C12.8939 4.65801 12.5206 5.08306 11.7738 5.93317C11.3876 6.37281 11.1946 6.59263 10.9791 6.62669C10.8598 6.6455 10.7382 6.62612 10.6279 6.57069C10.4291 6.47056 10.2964 6.19882 10.0312 5.65532L8.63319 2.79053C8.132 1.76351 7.88137 1.25 7.5 1.25C7.11862 1.25 6.868 1.76351 6.36681 2.79054L4.96879 5.65533C4.70356 6.19883 4.57094 6.47056 4.37204 6.57069C4.26182 6.62612 4.14021 6.6455 4.02085 6.62669C3.80545 6.59263 3.61235 6.37281 3.22617 5.93317C2.47942 5.08306 2.10605 4.65801 1.80874 4.68412C1.64791 4.69825 1.49749 4.78014 1.38687 4.91379C1.18237 5.16087 1.23862 5.75856 1.35113 6.95394L1.49437 8.476C1.7304 10.9839 1.84842 12.2378 2.58755 12.9939C3.32669 13.75 4.43448 13.75 6.65006 13.75H8.34994C10.5655 13.75 11.6733 13.75 12.4124 12.9939C12.9836 12.4096 13.1839 11.5279 13.3544 10" stroke="#157678" stroke-linecap="round"/>
<path d="M5.625 11.25H9.375" stroke="#157678" stroke-linecap="round"/>
</g>
<defs>
<clipPath id="clip0_115_100">
<rect width="15" height="15" fill="white"/>
</clipPath>
</defs>
</svg>
