<svg width="22" height="20" viewBox="0 0 22 20" fill="none" xmlns="http://www.w3.org/2000/svg">
<path fill-rule="evenodd" clip-rule="evenodd" d="M10.6583 1.00845C11.1139 1.46407 11.1139 2.20276 10.6583 2.65838L4.48324 8.83341H20.3333C20.9777 8.83341 21.5 9.35573 21.5 10.0001C21.5 10.6444 20.9777 11.1667 20.3333 11.1667H4.48324L10.6583 17.3418C11.1139 17.7974 11.1139 18.5361 10.6583 18.9917C10.2027 19.4473 9.46397 19.4473 9.00838 18.9917L0.841705 10.825C0.62292 10.6063 0.5 10.3095 0.5 10.0001C0.5 9.69068 0.62292 9.39388 0.841705 9.17513L9.00838 1.00845C9.46397 0.552846 10.2027 0.552846 10.6583 1.00845Z" fill="#169093"/>
</svg>
